<?xml version="1.0" encoding="utf-8"?>
<!-- Generator: Adobe Illustrator 17.0.0, SVG Export Plug-In . SVG Version: 6.00 Build 0)  -->
<!DOCTYPE svg PUBLIC "-//W3C//DTD SVG 1.1//EN" "http://www.w3.org/Graphics/SVG/1.1/DTD/svg11.dtd">
<svg version="1.1" id="Shape_3_1_" xmlns="http://www.w3.org/2000/svg" xmlns:xlink="http://www.w3.org/1999/xlink" x="0px" y="0px"
	 width="87px" height="61px" viewBox="0 0 87 61" enable-background="new 0 0 87 61" xml:space="preserve">
<g id="Shape_3">
	<g>
		<path fill-rule="evenodd" clip-rule="evenodd" fill="#F3F3F3" d="M83.902,29.136L71.926,4.718
			c-0.116-0.233-0.315-0.416-0.564-0.499c-0.249-0.083-0.531-0.067-0.763,0.05L60.63,9.162c-0.498,0.25-0.697,0.832-0.464,1.331
			l11.612,23.802l-3.898,3.579c-3.301,3.046-7.033,5.592-11.064,7.573l-19.093,9.371c-0.531,0.266-1.128,0.299-1.692,0.1
			c-0.564-0.2-1.012-0.599-1.277-1.132c-0.265-0.533-0.299-1.132-0.099-1.698s0.597-1.015,1.128-1.282l10.666-5.243
			c0.498-0.25,0.697-0.832,0.464-1.332c-0.249-0.499-0.846-0.699-1.327-0.466l-10.434,5.127l-5.258,2.58
			c-1.095,0.533-2.438,0.083-2.969-1.015c-0.531-1.099-0.083-2.43,1.012-2.979l15.327-7.523c0.498-0.25,0.697-0.832,0.464-1.332
			c-0.249-0.499-0.846-0.699-1.327-0.466l-11.346,5.576l-3.981,1.947l-1.874,0.915c-1.095,0.533-2.438,0.083-2.969-1.015
			c-0.531-1.099-0.083-2.447,1.012-2.979l1.891-0.932l13.718-6.741c0.498-0.25,0.697-0.832,0.464-1.332
			c-0.249-0.499-0.846-0.699-1.327-0.466l-8.808,4.328l-4.91,2.413c-0.531,0.266-1.128,0.3-1.692,0.1s-1.012-0.599-1.277-1.132
			c-0.265-0.533-0.299-1.132-0.1-1.698s0.597-1.015,1.128-1.282l7.282-3.579c0.498-0.25,0.697-0.832,0.464-1.332
			c-0.249-0.499-0.846-0.699-1.327-0.466l-7.282,3.579c-1.012,0.499-1.775,1.365-2.14,2.43c-0.365,1.066-0.299,2.214,0.199,3.229
			c0.381,0.799,1.012,1.432,1.775,1.847c-1.261,1.249-1.642,3.196-0.829,4.86c0.73,1.498,2.223,2.364,3.782,2.364
			c0.182,0,0.365-0.016,0.547-0.033c-0.133,0.832-0.033,1.715,0.365,2.547c0.73,1.498,2.223,2.364,3.782,2.364
			c0.614,0,1.244-0.133,1.841-0.433l1.808-0.899c-0.083,0.782,0.05,1.564,0.415,2.28c0.498,1.015,1.36,1.781,2.422,2.147
			C35.88,56.916,36.345,57,36.809,57c0.63,0,1.261-0.15,1.841-0.433l19.093-9.371c4.213-2.064,8.078-4.727,11.529-7.906l4.329-3.995
			l9.837-4.827C83.936,30.218,84.135,29.635,83.902,29.136z M73.452,33.197L62.388,10.51l8.194-4.012L81.63,29.186L73.452,33.197z
			 M24.966,10.311c1.957,0.699,4.164,0.566,6.038-0.35l1.028-0.499c1.377-0.682,3.002-0.782,4.446-0.283l19.723,6.825
			c-0.149,0.865-0.564,2.297-1.642,3.046c-0.962,0.666-2.355,0.699-4.114,0.083l-8.609-2.946c-0.265-0.083-0.547-0.067-0.796,0.067
			c-0.249,0.133-0.415,0.366-0.498,0.633c-0.017,0.05-1.294,4.777-5.275,6.907c-2.521,1.365-5.64,1.415-9.273,0.167
			c-0.514-0.183-1.078,0.1-1.261,0.616c-0.182,0.516,0.099,1.082,0.614,1.265c1.941,0.666,3.782,0.999,5.491,0.999
			c1.957,0,3.749-0.433,5.374-1.315c3.55-1.914,5.258-5.41,5.905-7.141l7.647,2.63c2.405,0.832,4.379,0.716,5.905-0.333
			c2.455-1.698,2.571-5.193,2.588-5.343c0.017-0.433-0.265-0.832-0.664-0.966L37.108,7.281c-1.941-0.665-4.114-0.533-5.972,0.366
			l-1.028,0.499c-1.393,0.682-3.036,0.782-4.495,0.25l-1.758-0.633c-0.083-0.05-0.166-0.1-0.249-0.133L13.122,4.052
			c-0.249-0.083-0.531-0.067-0.763,0.05c-0.232,0.117-0.415,0.316-0.498,0.566L3.053,30.451c-0.182,0.516,0.1,1.082,0.614,1.265
			l10.5,3.612c0.116,0.05,0.216,0.067,0.332,0.067c0.149,0,0.299-0.033,0.431-0.1c0.232-0.116,0.415-0.316,0.498-0.566l8.476-24.801
			L24.966,10.311z M13.885,33.114l-8.626-2.963L13.42,6.266l8.393,2.879c0.066,0.033,0.133,0.067,0.199,0.1l0.033,0.017
			L13.885,33.114z"/>
	</g>
</g>
</svg>
