<?xml version="1.0" encoding="utf-8"?>
<!-- Generator: Adobe Illustrator 17.0.0, SVG Export Plug-In . SVG Version: 6.00 Build 0)  -->
<!DOCTYPE svg PUBLIC "-//W3C//DTD SVG 1.1//EN" "http://www.w3.org/Graphics/SVG/1.1/DTD/svg11.dtd">
<svg version="1.1" id="Shape_5_1_" xmlns="http://www.w3.org/2000/svg" xmlns:xlink="http://www.w3.org/1999/xlink" x="0px" y="0px"
	 width="101px" height="322px" viewBox="0 0 101 322" enable-background="new 0 0 101 322" xml:space="preserve">
<g id="Shape_5">
	<g>
		<path fill-rule="evenodd" clip-rule="evenodd" fill="#A2A2A2" d="M92.231,281.393c-2.541,0.7-7.834,1.853-10.375,2.552
			C22.076,166.337,2.48,33.985,8.705,5.855c-11.68,30.449,17.261,182.083,67.267,279.71c-2.823,0.777-3.503,1.268-6.093,2.893
			c-0.565,0.155-0.769,0.516-0.974,0.876c-2.599-1.715-7.136,1.661-5.199,5.382c3.951,7.725,8.749,15.216,14.521,21.832
			c2.239,1.511,5.753-0.065,6.62-2.43c2.824-9.59,6.729-18.566,11.636-27.21C98.12,284.026,95.336,280.538,92.231,281.393z
			 M80.816,312.888c-2.784-3.488-9.724-13.824-12.021-17.75c0.282-0.078,1.702,0.493,0.323-0.185
			c-1.544-3.502,17.384-7.791,22.823-8.11C89.644,291.73,82.676,307.514,80.816,312.888z"/>
	</g>
</g>
</svg>
