<?xml version="1.0" encoding="utf-8"?>
<!-- Generator: Adobe Illustrator 17.0.0, SVG Export Plug-In . SVG Version: 6.00 Build 0)  -->
<!DOCTYPE svg PUBLIC "-//W3C//DTD SVG 1.1//EN" "http://www.w3.org/Graphics/SVG/1.1/DTD/svg11.dtd">
<svg version="1.1" id="Shape_5_copy_2_1_" xmlns="http://www.w3.org/2000/svg" xmlns:xlink="http://www.w3.org/1999/xlink" x="0px"
	 y="0px" width="53px" height="290px" viewBox="0 0 53 290" enable-background="new 0 0 53 290" xml:space="preserve">
<g id="Shape_5_copy_2">
	<g>
		<path fill-rule="evenodd" clip-rule="evenodd" fill="#A2A2A2" d="M38.459,258.586c-0.274-0.24-0.548-0.48-1.061-0.445
			c-2.618-0.598-3.324-0.809-5.89-0.636C44.742,162.016,24.884,27.815,6.39,5.932c13.3,21.538,35.331,137.034,19.769,251.933
			c-2.31,0.155-7.033,0.731-9.343,0.887c-2.823,0.19-4.123,3.89-1.932,5.808c6.57,5.751,12.405,12.068,17.522,19.208
			c1.403,1.712,4.774,2.001,6.193,0.099c2.873-7.161,4.686-14.767,5.728-22.321C44.857,257.897,40.118,256.41,38.459,258.586z
			 M35.394,281.58c-3.097-3.921-13.441-14.999-16.761-18.389c4.604-1.31,21.543-3.234,21.275,0.119
			c-0.948,0.962,0.065,0.077,0.322,0.06C39.46,267.293,36.693,277.879,35.394,281.58z"/>
	</g>
</g>
</svg>
