<?xml version="1.0" encoding="utf-8"?>
<!-- Generator: Adobe Illustrator 17.0.0, SVG Export Plug-In . SVG Version: 6.00 Build 0)  -->
<!DOCTYPE svg PUBLIC "-//W3C//DTD SVG 1.1//EN" "http://www.w3.org/Graphics/SVG/1.1/DTD/svg11.dtd">
<svg version="1.1" id="Shape_5_copy_1_" xmlns="http://www.w3.org/2000/svg" xmlns:xlink="http://www.w3.org/1999/xlink" x="0px"
	 y="0px" width="79px" height="265px" viewBox="0 0 79 265" enable-background="new 0 0 79 265" xml:space="preserve">
<g id="Shape_5_copy">
	<g>
		<path fill-rule="evenodd" clip-rule="evenodd" fill="#A2A2A2" d="M28.98,238.14c-2.124-0.475-6.432-1.687-8.556-2.163
			C22.472,127.112,59.547,23.085,75.004,5.004c-20.335,17.656-58.078,139.354-59.5,229.872c-2.36-0.528-3.047-0.434-5.566-0.255
			c-0.472-0.106-0.761,0.077-1.05,0.261c-1.229-2.258-5.848-1.557-5.88,1.905c-0.117,7.16,0.475,14.479,2.117,21.537
			c1.046,1.969,4.22,2.184,5.771,0.796c5.782-5.892,12.113-10.918,19.046-15.313C32.253,242.342,31.576,238.722,28.98,238.14z
			 M8.433,256.661c-0.676-3.62-1.726-13.842-1.878-17.593c0.236,0.053,1.05,1.019,0.307-0.009c0.233-3.15,15.701,1.064,19.792,2.941
			C23.082,244.669,11.875,253.467,8.433,256.661z"/>
	</g>
</g>
</svg>
