<?xml version="1.0" encoding="utf-8"?>
<!-- Generator: Adobe Illustrator 17.0.0, SVG Export Plug-In . SVG Version: 6.00 Build 0)  -->
<!DOCTYPE svg PUBLIC "-//W3C//DTD SVG 1.1//EN" "http://www.w3.org/Graphics/SVG/1.1/DTD/svg11.dtd">
<svg version="1.1" id="Shape_5_copy_3_1_" xmlns="http://www.w3.org/2000/svg" xmlns:xlink="http://www.w3.org/1999/xlink" x="0px"
	 y="0px" width="60px" height="259px" viewBox="0 0 60 259" enable-background="new 0 0 60 259" xml:space="preserve">
<g id="Shape_5_copy_3">
	<g>
		<path fill-rule="evenodd" clip-rule="evenodd" fill="#A2A2A2" d="M27.593,231.237c-0.194-0.262-0.388-0.524-0.845-0.592
			c-2.183-1.024-2.762-1.343-5.049-1.683C51.754,148.015,60.228,26.893,48.215,4.223c7.519,21.374,4.564,126.56-31.281,224.03
			c-2.058-0.306-6.316-0.706-8.374-1.013c-2.515-0.374-4.371,2.612-2.818,4.707c4.658,6.285,8.562,12.924,11.675,20.145
			c0.901,1.765,3.805,2.663,5.418,1.272c3.905-5.711,6.965-12.013,9.338-18.418C33.344,231.859,29.47,229.652,27.593,231.237z
			 M20.463,250.752c-1.962-4.02-8.906-15.685-11.166-19.283c4.295-0.264,19.538,1.295,18.656,4.175
			c-1.018,0.659,0.042,0.08,0.271,0.114C26.791,239.04,22.319,247.766,20.463,250.752z"/>
	</g>
</g>
</svg>
