<?xml version="1.0" encoding="utf-8"?>
<!-- Generator: Adobe Illustrator 17.0.0, SVG Export Plug-In . SVG Version: 6.00 Build 0)  -->
<!DOCTYPE svg PUBLIC "-//W3C//DTD SVG 1.1//EN" "http://www.w3.org/Graphics/SVG/1.1/DTD/svg11.dtd">
<svg version="1.1" id="Shape_2_1_" xmlns="http://www.w3.org/2000/svg" xmlns:xlink="http://www.w3.org/1999/xlink" x="0px" y="0px"
	 width="60px" height="73px" viewBox="0 0 60 73" enable-background="new 0 0 60 73" xml:space="preserve">
<g id="Shape_2">
	<g>
		<path fill-rule="evenodd" clip-rule="evenodd" fill="#F3F3F3" d="M54.314,7.421C53.813,7.22,41.922,2.598,32.67,7.47
			c-7.331,3.863-20.199,0.965-23.488,0.127v-2.5c0-0.599-0.488-1.083-1.091-1.083C7.488,4.013,7,4.497,7,5.096v3.25
			c0,0.015,0.008,0.028,0.009,0.043C7.009,8.402,7,8.413,7,8.426V67.92c0,0.599,0.488,1.083,1.091,1.083
			c0.603,0,1.091-0.484,1.091-1.083V42.33c2.48,0.614,7.884,1.768,13.492,1.768c3.88,0,7.854-0.554,11.019-2.22
			c8.348-4.399,19.697,0.005,19.811,0.049c0.337,0.134,0.717,0.093,1.017-0.111C54.82,41.617,55,41.281,55,40.921V8.426
			C55,7.983,54.728,7.586,54.314,7.421z M52.818,39.395c-3.556-1.124-12.705-3.354-20.148,0.569
			c-7.33,3.863-20.194,0.966-23.488,0.128V9.835c4.203,1.041,16.779,3.621,24.512-0.452c7.163-3.773,16.536-1.067,19.125-0.196
			V39.395z"/>
	</g>
</g>
</svg>
