<?xml version="1.0" encoding="utf-8"?>
<!-- Generator: Adobe Illustrator 17.0.0, SVG Export Plug-In . SVG Version: 6.00 Build 0)  -->
<!DOCTYPE svg PUBLIC "-//W3C//DTD SVG 1.1//EN" "http://www.w3.org/Graphics/SVG/1.1/DTD/svg11.dtd">
<svg version="1.1" id="Shape_4_copy_1_" xmlns="http://www.w3.org/2000/svg" xmlns:xlink="http://www.w3.org/1999/xlink" x="0px"
	 y="0px" width="87px" height="48px" viewBox="0 0 87 48" enable-background="new 0 0 87 48" xml:space="preserve">
<g id="Shape_4_copy">
	<g>
		<path fill-rule="evenodd" clip-rule="evenodd" fill="#F3F3F3" d="M68.351,28.755c3.872,0,7.014-3.081,7.014-6.879
			s-3.141-6.879-7.014-6.879c-3.872,0-7.014,3.096-7.014,6.879S64.479,28.755,68.351,28.755z M68.351,17.499
			c2.457,0,4.463,1.968,4.463,4.378c0,2.41-2.006,4.378-4.463,4.378c-2.457,0-4.463-1.967-4.463-4.378
			C63.888,19.466,65.894,17.499,68.351,17.499z M18.665,28.755c3.872,0,7.014-3.081,7.014-6.879s-3.141-6.879-7.014-6.879
			c-3.872,0-7.014,3.096-7.014,6.879S14.792,28.755,18.665,28.755z M18.649,17.499c2.457,0,4.463,1.968,4.463,4.378
			c0,2.41-2.006,4.378-4.463,4.378s-4.463-1.967-4.463-4.378C14.186,19.466,16.192,17.499,18.649,17.499z M68.351,29.381
			c-5.147,0-9.782,2.593-12.425,6.788c-2.597-4.057-7.185-6.788-12.425-6.788c-5.241,0-9.828,2.715-12.425,6.772
			c-2.644-4.179-7.278-6.772-12.425-6.772C10.563,29.381,4,35.833,4,43.749V45h79v-1.251C83,35.817,76.422,29.381,68.351,29.381z
			 M29.675,39.051c-0.187,0.503-0.327,1.022-0.451,1.556c-0.016,0.046-0.016,0.076-0.031,0.122
			c-0.124,0.549-0.218,1.129-0.264,1.693c0,0.03-0.016,0.061-0.016,0.076h-22.3c0.638-5.964,5.801-10.616,12.037-10.616
			c4.821,0,9.097,2.746,11.057,7.047C29.691,38.975,29.691,39.02,29.675,39.051z M31.463,42.498
			c0.031-0.274,0.078-0.534,0.124-0.808c0.016-0.061,0.016-0.122,0.031-0.183c0.14-0.732,0.358-1.449,0.638-2.151l0.078-0.183
			c1.835-4.286,6.143-7.291,11.166-7.291c5.023,0,9.331,3.02,11.166,7.291l0.078,0.183c0.28,0.702,0.498,1.419,0.638,2.151
			c0.016,0.061,0.016,0.122,0.031,0.183c0.047,0.274,0.093,0.534,0.124,0.808H31.463z M58.102,42.498
			c0-0.03-0.016-0.061-0.016-0.076c-0.047-0.58-0.14-1.144-0.264-1.693c-0.016-0.046-0.016-0.076-0.031-0.122
			c-0.124-0.534-0.28-1.037-0.451-1.556c-0.016-0.046-0.016-0.092-0.031-0.122c1.944-4.301,6.236-7.047,11.057-7.047
			c6.252,0,11.399,4.668,12.037,10.616H58.102z M43.5,28.755c3.872,0,7.014-3.081,7.014-6.879s-3.141-6.879-7.014-6.879
			c-3.872,0-7.014,3.096-7.014,6.879S39.628,28.755,43.5,28.755z M43.5,17.499c2.457,0,4.463,1.968,4.463,4.378
			c0,2.41-2.006,4.378-4.463,4.378s-4.463-1.967-4.463-4.378C39.037,19.466,41.043,17.499,43.5,17.499z M55.5,16.755
			c3.872,0,7.014-3.081,7.014-6.879S59.372,2.997,55.5,2.997c-3.872,0-7.014,3.096-7.014,6.879
			C48.486,13.659,51.628,16.755,55.5,16.755z M55.5,5.498c2.457,0,4.463,1.968,4.463,4.378c0,2.41-2.006,4.378-4.463,4.378
			c-2.457,0-4.463-1.968-4.463-4.378C51.037,7.466,53.043,5.498,55.5,5.498z M30.665,16.755c3.872,0,7.014-3.081,7.014-6.879
			s-3.141-6.879-7.014-6.879c-3.872,0-7.014,3.096-7.014,6.879C23.651,13.659,26.792,16.755,30.665,16.755z M30.649,5.498
			c2.457,0,4.463,1.968,4.463,4.378c0,2.41-2.006,4.378-4.463,4.378c-2.457,0-4.463-1.968-4.463-4.378
			C26.186,7.466,28.192,5.498,30.649,5.498z"/>
	</g>
</g>
</svg>
