<?xml version="1.0" encoding="utf-8"?>
<!-- Generator: Adobe Illustrator 17.0.0, SVG Export Plug-In . SVG Version: 6.00 Build 0)  -->
<!DOCTYPE svg PUBLIC "-//W3C//DTD SVG 1.1//EN" "http://www.w3.org/Graphics/SVG/1.1/DTD/svg11.dtd">
<svg version="1.1" id="Shape_4_1_" xmlns="http://www.w3.org/2000/svg" xmlns:xlink="http://www.w3.org/1999/xlink" x="0px" y="0px"
	 width="77px" height="72px" viewBox="0 0 77 72" enable-background="new 0 0 77 72" xml:space="preserve">
<g id="Shape_4">
	<g>
		<path fill-rule="evenodd" clip-rule="evenodd" fill="#F3F3F3" d="M72.953,27.522c-0.128-0.396-0.495-0.664-0.909-0.664H46.731
			L38.909,2.664C38.781,2.268,38.414,2,38,2c-0.414,0-0.781,0.268-0.909,0.664l-7.822,24.193H3.956
			c-0.414,0-0.781,0.268-0.909,0.664c-0.128,0.396,0.012,0.829,0.347,1.074l10.953,7.998c-0.821,1.572-1.287,3.36-1.287,5.256
			c0,0.46,0.028,0.913,0.081,1.358c-0.031,0.194-0.004,0.395,0.083,0.575c0.212,1.237,0.624,2.407,1.201,3.473
			c0.039,0.171,0.123,0.334,0.255,0.467c0.009,0.009,0.018,0.016,0.027,0.024c0.575,0.945,1.283,1.799,2.098,2.537
			c0.034,0.051,0.073,0.099,0.118,0.144c0.079,0.08,0.169,0.141,0.265,0.187c0.898,0.743,1.913,1.349,3.011,1.786
			c0.109,0.069,0.229,0.113,0.352,0.133c0.124,0.044,0.248,0.087,0.374,0.127L16.05,67.742c-0.128,0.396,0.012,0.83,0.347,1.074
			s0.789,0.245,1.124,0L38,53.863l20.478,14.953c0.168,0.122,0.365,0.183,0.562,0.183c0.197,0,0.394-0.061,0.562-0.183
			c0.335-0.245,0.475-0.678,0.347-1.074L55.073,52.66c4.497-1.441,7.779-5.642,7.864-10.613c0.049-0.174,0.048-0.359-0.003-0.533
			c-0.036-1.244-0.272-2.439-0.678-3.553c-0.013-0.043-0.029-0.084-0.047-0.125c-0.161-0.427-0.347-0.841-0.557-1.242l10.953-7.998
			C72.941,28.351,73.081,27.917,72.953,27.522z M16.602,47.15l8.915-8.96c0.373-0.375,0.373-0.984,0-1.359
			c-0.373-0.375-0.979-0.375-1.352,0l-8.507,8.549c-0.223-0.552-0.396-1.13-0.512-1.728l10.998-11.052
			c0.595,0.116,1.17,0.29,1.719,0.514l-1.189,1.196c-0.373,0.375-0.373,0.983,0,1.358c0.187,0.188,0.431,0.281,0.676,0.281
			c0.245,0,0.489-0.094,0.676-0.281l1.598-1.606c0.438,0.301,0.848,0.638,1.229,1.007L17.604,48.385
			C17.237,48.003,16.901,47.59,16.602,47.15z M15.006,41.077c0.372-4.581,4.016-8.243,8.574-8.617L15.006,41.077z M20.497,50.437
			c-0.501-0.228-0.979-0.497-1.429-0.806l13.024-13.089c0.308,0.452,0.576,0.933,0.802,1.436L20.497,50.437z M23.963,51.262
			c-0.483-0.019-0.956-0.076-1.417-0.167L33.55,40.037c0.09,0.464,0.146,0.938,0.166,1.423L23.963,51.262z M33.325,44.57
			c-0.906,3.01-3.272,5.389-6.268,6.299L33.325,44.57z M57.222,65.523l-18.66-13.625c-0.335-0.245-0.789-0.245-1.124,0
			l-18.66,13.625l4.021-12.438c0.507,0.07,1.024,0.107,1.55,0.107c4.666,0,8.679-2.859,10.397-6.925
			c0.498-0.034,0.892-0.449,0.892-0.958v-3.184c0.078-0.208,0.082-0.436,0.012-0.646c0.121-1.196,1.129-2.132,2.35-2.132
			c1.303,0,2.363,1.065,2.363,2.374v3.588c0,0.509,0.394,0.924,0.892,0.958c0.173,0.409,0.369,0.806,0.587,1.189
			c0.022,0.047,0.048,0.092,0.078,0.135c0.625,1.066,1.419,2.022,2.344,2.828c0.002,0.002,0.004,0.005,0.006,0.007
			c0.038,0.039,0.08,0.072,0.123,0.103c0.963,0.815,2.063,1.471,3.26,1.928c0.044,0.02,0.088,0.037,0.133,0.051
			c1.195,0.439,2.483,0.68,3.826,0.685c0.004,0,0.007,0,0.011,0c0.002,0,0.004,0,0.006,0c0.008,0,0.015,0,0.023,0
			c0.526,0,1.043-0.037,1.55-0.107L57.222,65.523z M54.02,35.669c0.187,0.188,0.431,0.281,0.676,0.281
			c0.245,0,0.489-0.094,0.676-0.281l1.58-1.588c0.437,0.302,0.846,0.641,1.225,1.01l-13.25,13.315
			c-0.368-0.381-0.705-0.792-1.005-1.231l8.94-8.985c0.373-0.375,0.373-0.984,0-1.359c-0.373-0.375-0.979-0.375-1.352,0l-8.537,8.58
			c-0.225-0.55-0.399-1.126-0.517-1.722l11.027-11.082c0.593,0.118,1.166,0.294,1.714,0.52l-1.177,1.183
			C53.646,34.685,53.646,35.294,54.02,35.669z M59.412,36.567c0.306,0.454,0.573,0.936,0.798,1.441L47.829,50.45
			c-0.502-0.227-0.982-0.494-1.433-0.802L59.412,36.567z M42.305,41.123c0.352-4.618,4.029-8.313,8.624-8.667L42.305,41.123z
			 M54.319,50.881l6.32-6.352C59.738,47.573,57.347,49.976,54.319,50.881z M51.237,51.261c-0.46-0.02-0.911-0.075-1.352-0.16
			l10.974-11.028c0.084,0.443,0.139,0.896,0.159,1.358L51.237,51.261z M60.622,34.971c-0.103-0.135-0.208-0.268-0.317-0.398
			c-0.034-0.051-0.073-0.099-0.117-0.144c-0.006-0.006-0.012-0.011-0.018-0.016c-0.797-0.921-1.739-1.711-2.79-2.336
			c-0.053-0.039-0.109-0.072-0.167-0.098c-1.188-0.679-2.511-1.147-3.917-1.355c-0.016-0.002-0.032-0.005-0.048-0.007
			c-0.522-0.075-1.055-0.114-1.597-0.114c-5.076,0-9.38,3.384-10.795,8.026c-0.758-0.685-1.759-1.103-2.856-1.103
			c-1.097,0-2.098,0.418-2.856,1.103c-1.416-4.641-5.719-8.026-10.795-8.026c-3.653,0-6.906,1.754-8.971,4.467l-8.48-6.192h23.065
			c0.414,0,0.781-0.268,0.909-0.664L38,6.07l7.128,22.045c0.128,0.396,0.495,0.664,0.909,0.664h23.065L60.622,34.971z"/>
	</g>
</g>
</svg>
