<?xml version="1.0" encoding="utf-8"?>
<!-- Generator: Adobe Illustrator 17.0.0, SVG Export Plug-In . SVG Version: 6.00 Build 0)  -->
<!DOCTYPE svg PUBLIC "-//W3C//DTD SVG 1.1//EN" "http://www.w3.org/Graphics/SVG/1.1/DTD/svg11.dtd">
<svg version="1.1" id="Shape_1_1_" xmlns="http://www.w3.org/2000/svg" xmlns:xlink="http://www.w3.org/1999/xlink" x="0px" y="0px"
	 width="53px" height="53px" viewBox="0 0 53 53" enable-background="new 0 0 53 53" xml:space="preserve">
<g id="Shape_1">
	<g>
		<path fill-rule="evenodd" clip-rule="evenodd" fill="#F3F3F3" d="M49.535,46.425L37.406,34.489
			c3.175-3.451,5.127-8.014,5.127-13.036c-0.002-10.743-8.85-19.451-19.767-19.451c-10.916,0-19.765,8.708-19.765,19.451
			c0,10.743,8.848,19.451,19.765,19.451c4.716,0,9.042-1.632,12.44-4.343l12.176,11.983c0.593,0.584,1.556,0.584,2.15,0
			C50.127,47.958,50.127,47.009,49.535,46.425z M22.766,37.91c-9.236,0-16.724-7.368-16.724-16.458
			c0-9.09,7.488-16.458,16.724-16.458c9.236,0,16.724,7.368,16.724,16.458C39.49,30.542,32.003,37.91,22.766,37.91z"/>
	</g>
</g>
</svg>
